<svg width="676" height="553" viewBox="0 0 676 553" fill="none" xmlns="http://www.w3.org/2000/svg">
<g opacity="0.25" filter="url(#filter0_d_1_150)">
<path fill-rule="evenodd" clip-rule="evenodd" d="M200.086 442.513C192.897 450.112 192.142 458.64 197.992 464.656C203.9 470.732 212.495 470.029 219.951 462.92L294.884 390.062C297.203 392.447 299.514 394.793 301.793 397.107L301.807 397.122L301.843 397.158L301.863 397.178L301.864 397.179L301.869 397.185L301.878 397.194L301.899 397.215C304.125 399.476 306.322 401.706 308.468 403.913L310.363 405.862L322.425 418.267C327.268 423.248 331.268 427.458 335.022 431.485C336.26 433.96 336.754 436.734 336.443 439.467C330.672 473.986 324.682 508.527 318.195 544.575H373.181C375.467 542.359 377.731 540.161 379.966 537.988L380.18 537.78C405.834 512.977 432.298 487.363 458.278 461.728C475.539 445.532 486.977 424.081 490.852 400.634C493.991 376.82 489.561 352.536 478.189 331.209C477.598 330.391 477.175 329.465 476.945 328.485C476.715 327.505 476.682 326.492 476.848 325.504C477.015 324.516 477.377 323.573 477.914 322.731C478.451 321.889 479.152 321.165 479.975 320.601C506.423 295.447 532.816 269.785 558.394 244.354C570.273 232.783 581.257 220.327 591.254 207.09C630.505 152.05 657.465 89.1283 670.333 22.5295C671.4 19.4196 671.693 16.0881 671.185 12.8219C670.678 9.55573 669.386 6.45271 667.421 3.78003C663.759 0.0139962 657.514 -0.959326 649.357 0.955988C619.605 7.64756 594.648 13.7733 569.485 21.8538C510.936 40.0668 457.835 72.2534 414.728 115.658C404.401 126.247 393.769 136.552 383.36 146.64C380.911 149.014 378.473 151.376 376.056 153.727L375.889 153.889C366.41 163.035 356.598 172.505 346.961 182.132C345.603 183.982 343.559 185.207 341.28 185.541C339.001 185.874 336.673 185.287 334.806 183.91C326.319 179.102 317.267 175.389 307.867 172.862C289.356 167.721 269.859 167.655 251.43 172.671C233.001 177.687 216.324 187.599 203.156 201.363C178.052 225.388 153.054 249.811 128.776 273.531L126.119 276.126L120.933 281.169C111.714 290.249 98.9991 302.612 87.426 313.865C85.3029 315.89 83.5086 318.235 82.1064 320.816C80.8343 323.376 80.396 326.278 80.8525 329.119C81.309 331.96 82.6376 334.598 84.6534 336.667C86.1187 338.171 87.8922 339.34 89.8491 340.09C91.8059 340.84 93.8985 341.154 95.9794 341.01C97.1166 340.998 98.2483 340.87 99.3569 340.628L99.5342 340.596C99.7354 340.568 99.9503 340.535 100.175 340.5C100.611 340.432 101.083 340.359 101.566 340.306C121.15 337.555 141.02 334.621 160.239 331.78L162.224 331.442L162.296 331.372L164.304 331.058L164.588 331.016C183.666 328.149 203.487 325.261 223.154 322.524C226.717 322.424 230.201 323.678 232.906 326.033C236.711 329.66 240.841 333.907 245.66 338.864C247.985 341.255 250.388 343.762 252.586 346.054L252.595 346.064L252.599 346.068C254.445 347.994 256.146 349.768 257.534 351.195L258.13 351.809L261.078 354.841L270.519 364.551C271.835 365.992 273.03 367.54 274.092 369.176L274.663 370.002L200.086 442.513ZM3.99969 544.575C28.3424 521.372 52.6826 497.664 77.0202 473.452L153.083 399.495C155.108 397.428 157.281 395.511 159.585 393.759C162.228 391.958 165.438 391.165 168.638 391.525C171.838 391.885 174.818 393.373 177.042 395.722C179.379 397.98 180.818 401.006 181.087 404.23C181.356 407.453 180.436 410.65 178.502 413.215C177.081 415.086 175.496 416.823 173.763 418.408L44.002 544.575H3.99969ZM138.872 544.575H98.1151L120.448 522.861C128.12 515.402 137.019 515.035 142.927 521.112C144.234 522.745 145.204 524.62 145.778 526.626C146.353 528.632 146.52 530.728 146.271 532.79C146.022 534.853 145.361 536.84 144.327 538.633C143.294 540.427 141.909 541.99 140.254 543.231L138.872 544.575ZM236.778 544.575H196.022L228.097 513.388C230.244 510.975 232.866 509.032 235.801 507.676C238.403 506.223 241.452 505.764 244.388 506.384C247.325 507.003 249.951 508.66 251.784 511.049C253.922 513.174 255.244 515.982 255.513 518.97C255.782 521.959 254.981 524.933 253.254 527.363C251.326 530.244 249.041 532.867 246.452 535.17L236.778 544.575ZM453.862 348.098C454.185 347.898 454.491 347.671 454.776 347.419L454.87 347.516C461.684 359.89 465.055 373.837 464.627 387.885C464.199 401.932 459.989 415.56 452.439 427.332C451.832 428.067 451.288 428.83 450.793 429.525L450.77 429.557C450.709 429.642 450.649 429.726 450.59 429.809L450.376 430.017L450.162 430.225C449.061 431.852 447.816 433.375 446.443 434.778L352.051 526.556L352.053 526.249C352.007 524.27 352.11 522.291 352.362 520.331C357.421 490.718 362.042 464.035 366.891 437.037C367.403 433.914 368.743 430.995 370.772 428.582L452.461 349.155C452.825 348.84 453.219 348.559 453.636 348.317L453.862 348.098ZM312.044 204.168C314.994 205.32 317.861 206.678 320.624 208.232L320.635 208.244L300.76 227.569C297.213 231.018 293.556 234.605 290.039 238.055L290.03 238.064C286.771 241.261 283.632 244.34 280.813 247.081L278.91 248.932L277.521 250.294C264.715 262.859 251.513 275.813 238.304 288.272C235.855 290.956 232.617 292.795 229.046 293.529C215.784 295.485 202.479 297.436 189.131 299.382L185.504 299.912L183.685 300.183C169.876 302.187 156.067 304.214 142.387 306.233C142.045 306.214 141.715 306.184 141.303 306.14L141.244 306.08C140.268 305.962 139.282 305.955 138.307 306.057C138.387 305.944 138.458 305.823 138.528 305.704L138.528 305.704C138.644 305.507 138.755 305.317 138.904 305.172L139.058 305.022C139.707 303.958 140.458 302.961 141.301 302.046L164.079 279.899L169.574 274.556C187.809 256.686 206.686 238.214 225.725 220.1C236.651 208.907 250.787 201.377 266.224 198.527C281.661 195.678 297.654 197.647 312.044 204.168ZM415.108 265.639C414.993 262.385 413.758 259.258 411.612 256.787L411.192 256.307C408.87 253.984 405.812 252.546 402.558 252.246C399.303 251.947 396.061 252.804 393.401 254.669C391.649 255.651 390.091 256.943 388.804 258.483L387.46 259.79L294.792 349.891L256.385 310.39L263.188 303.775C280.636 286.811 298.358 269.688 315.654 252.976L315.656 252.975L315.657 252.974C318.062 250.649 320.46 248.333 322.847 246.026L324.424 244.503L324.426 244.502L324.429 244.499L324.429 244.499L324.432 244.496C363.153 207.102 403.158 168.466 441.946 129.968C472.512 100.236 508.709 76.8937 548.465 61.2755C568.906 53.3611 590.34 46.7526 611.146 40.3794L611.453 40.2911C614.847 39.2162 618.308 38.1386 621.775 37.0594L621.795 37.0532L621.804 37.0504L621.822 37.0449C624.285 36.2781 626.751 35.5104 629.197 34.7423C631.188 34.0785 633.238 33.5977 635.32 33.306C635.616 33.2505 635.936 33.1929 636.276 33.1315L636.277 33.1313C637.378 32.9328 638.698 32.6949 640.142 32.363C630.841 67.9008 618.267 102.465 602.582 135.616C586.88 168.491 565.514 198.297 539.451 223.682L350.631 407.273L314.575 370.19L406.327 280.98C408.45 279.013 410.427 276.896 412.243 274.642C414.211 272.073 415.223 268.892 415.108 265.639ZM466.642 203.297L466.116 202.755C457.025 193.222 451.974 180.556 452.041 167.457C452.108 154.359 457.286 141.863 466.472 132.633C475.976 123.715 488.629 118.901 501.734 119.218C514.84 119.535 527.363 124.957 536.635 134.329L537.15 134.859C541.799 139.727 545.451 145.456 547.896 151.715C550.341 157.975 551.53 164.641 551.396 171.332C551.347 177.744 550.032 184.068 547.528 189.941C545.023 195.815 541.378 201.123 536.801 205.559C532.102 209.95 526.572 213.36 520.528 215.593C514.484 217.826 508.046 218.839 501.581 218.574C488.434 218.247 475.883 212.759 466.642 203.297ZM517.315 153.559C513.223 149.375 507.656 146.966 501.838 146.862C496.019 146.758 490.424 148.966 486.278 153.003C482.333 157.181 480.16 162.735 480.208 168.516C480.257 174.297 482.524 179.864 486.54 184.067C490.776 188.175 496.431 190.481 502.297 190.491C505.165 190.512 508 189.951 510.632 188.841C513.263 187.731 515.636 186.095 517.606 184.033C521.466 179.927 523.588 174.477 523.534 168.808C523.48 163.139 521.254 157.681 517.315 153.559Z" fill="#FB8958"/>
</g>
<defs>
<filter id="filter0_d_1_150" x="-0.000305176" y="0" width="675.428" height="552.575" filterUnits="userSpaceOnUse" color-interpolation-filters="sRGB">
<feFlood flood-opacity="0" result="BackgroundImageFix"/>
<feColorMatrix in="SourceAlpha" type="matrix" values="0 0 0 0 0 0 0 0 0 0 0 0 0 0 0 0 0 0 127 0" result="hardAlpha"/>
<feOffset dy="4"/>
<feGaussianBlur stdDeviation="2"/>
<feComposite in2="hardAlpha" operator="out"/>
<feColorMatrix type="matrix" values="0 0 0 0 0 0 0 0 0 0 0 0 0 0 0 0 0 0 0.25 0"/>
<feBlend mode="normal" in2="BackgroundImageFix" result="effect1_dropShadow_1_150"/>
<feBlend mode="normal" in="SourceGraphic" in2="effect1_dropShadow_1_150" result="shape"/>
</filter>
</defs>
</svg>
